<svg width="29" height="27" viewBox="0 0 29 27" fill="none" xmlns="http://www.w3.org/2000/svg">
<path d="M10.125 22.7812C10.125 22.9304 10.0657 23.0735 9.96025 23.179C9.85476 23.2845 9.71168 23.3438 9.5625 23.3438C9.41332 23.3438 9.27024 23.2845 9.16475 23.179C9.05926 23.0735 9 22.9304 9 22.7812C9 22.6321 9.05926 22.489 9.16475 22.3835C9.27024 22.278 9.41332 22.2188 9.5625 22.2188C9.71168 22.2188 9.85476 22.278 9.96025 22.3835C10.0657 22.489 10.125 22.6321 10.125 22.7812ZM21.0938 22.7812C21.0938 22.9304 21.0345 23.0735 20.929 23.179C20.8235 23.2845 20.6804 23.3438 20.5312 23.3438C20.3821 23.3438 20.239 23.2845 20.1335 23.179C20.028 23.0735 19.9688 22.9304 19.9688 22.7812C19.9688 22.6321 20.028 22.489 20.1335 22.3835C20.239 22.278 20.3821 22.2188 20.5312 22.2188C20.6804 22.2188 20.8235 22.278 20.929 22.3835C21.0345 22.489 21.0938 22.6321 21.0938 22.7812Z" fill="#303036" stroke="#303036" stroke-width="2.25"/>
<path d="M5.58675 7.59375H24.507L21.7226 17.3385C21.6235 17.6922 21.411 18.0036 21.1177 18.2247C20.8244 18.4459 20.4666 18.5645 20.0992 18.5625H9.9945C9.62718 18.5645 9.26936 18.4459 8.97606 18.2247C8.68276 18.0036 8.47022 17.6922 8.37112 17.3385L4.55287 3.987C4.50247 3.81053 4.3959 3.65531 4.24932 3.54487C4.10274 3.43443 3.92415 3.37479 3.74063 3.375H1.96875" stroke="#303036" stroke-width="2.25" stroke-linecap="round" stroke-linejoin="round"/>
</svg>
