<svg width="48" height="47" viewBox="0 0 48 47" fill="none" xmlns="http://www.w3.org/2000/svg">
<path d="M7.99151 0.383734L7.99156 0.383727C7.99153 0.383732 7.9924 0.38359 7.99439 0.383331L8.00237 0.382391C8.00927 0.381644 8.0183 0.380794 8.02973 0.379869C8.05264 0.378013 8.0826 0.376057 8.12001 0.374039C8.19474 0.370007 8.29507 0.365943 8.42031 0.361886C8.67058 0.35378 9.01598 0.345841 9.44617 0.338177C10.3063 0.322852 11.502 0.308683 12.9465 0.296418C15.8352 0.271888 19.7168 0.254984 23.8937 0.251626C30.1521 0.246476 34.0018 0.252751 36.4125 0.28219C38.8318 0.311736 39.7832 0.36481 40.2622 0.448243C43.0064 0.926254 45.4763 2.74076 46.704 5.17532C46.7446 5.25573 46.7833 5.33184 46.8204 5.40464C47.0489 5.85351 47.2134 6.17653 47.3408 6.60467C47.4886 7.1012 47.5879 7.74706 47.651 8.88338C47.7686 11.0028 47.7579 14.7652 47.7365 22.3163C47.7349 22.8767 47.7332 23.458 47.7316 24.061L47.6888 39.5668L47.3329 40.5502L47.568 40.6353L47.3329 40.5502C46.2355 43.5834 43.8654 45.7218 40.7046 46.5268C40.0542 46.6924 39.0449 46.75 36.4565 46.75H33.3035V37.8943V29.0386H36.1803C36.5062 29.0386 36.8002 29.0398 37.065 29.041C37.5134 29.0429 37.878 29.0444 38.1719 29.039C38.6297 29.0305 38.9632 29.0058 39.1957 28.9177C39.321 28.8702 39.4273 28.8011 39.5097 28.6999C39.5902 28.601 39.6344 28.488 39.6629 28.3752C39.6908 28.2644 39.7071 28.1389 39.722 28.0082C39.726 27.9731 39.7299 27.9373 39.7339 27.9005C39.7455 27.7952 39.758 27.6817 39.7754 27.5536C39.9081 26.5808 40.0835 25.2294 40.2258 24.1016C40.2969 23.5376 40.3597 23.0291 40.4049 22.6514C40.4274 22.4627 40.4456 22.306 40.4582 22.1913C40.4697 22.0866 40.4789 21.9967 40.4789 21.9593C40.4789 21.8001 40.3602 21.7185 40.3062 21.6896C40.2455 21.6571 40.1737 21.6379 40.1063 21.6243C39.9664 21.5962 39.7611 21.5768 39.483 21.5624C38.9223 21.5333 38.015 21.5227 36.6254 21.5227H33.277L33.3339 18.8299C33.3678 17.2223 33.4141 16.3162 33.5424 15.7293C33.6052 15.4421 33.6857 15.2422 33.7879 15.0794C33.8905 14.9161 34.0228 14.7773 34.207 14.6199C34.5255 14.3478 34.7964 14.1954 35.3088 14.1034C35.8432 14.0073 36.6292 13.9793 37.9782 13.9733L40.5354 13.962L40.7843 13.9609V13.712V10.586C40.7843 9.66488 40.7691 8.87015 40.743 8.29761C40.73 8.01203 40.714 7.77785 40.6953 7.60961C40.6861 7.52644 40.6755 7.45291 40.6627 7.39512C40.6565 7.36698 40.648 7.3344 40.6357 7.30343C40.6295 7.28791 40.6199 7.26661 40.6055 7.24428C40.5926 7.22438 40.5651 7.18662 40.5168 7.15742L40.5168 7.15739C40.4864 7.13906 40.4578 7.13033 40.447 7.12711C40.432 7.12269 40.4176 7.11941 40.4055 7.11695C40.3811 7.11201 40.3531 7.10776 40.324 7.10398C40.2652 7.09632 40.1873 7.0887 40.0946 7.08111C39.9083 7.06587 39.6509 7.04987 39.3421 7.03401C38.7238 7.00227 37.8926 6.97078 36.9973 6.94715C34.3549 6.87738 33.5093 6.90402 32.5446 7.10471C29.2861 7.78245 26.9764 9.82712 25.933 12.9613C25.6018 13.9563 25.5666 14.4369 25.5106 17.9249L25.4529 21.5227H22.5825H19.4661H19.2161V21.7727V25.2807V28.7886V29.0386H19.4661H22.5958H25.4755V37.8943V46.75H16.9028H16.6333C11.9128 46.75 9.57324 46.7501 8.15543 46.6304C7.43858 46.57 6.96873 46.4796 6.55199 46.3466C6.14638 46.2172 5.78419 46.0457 5.27934 45.8066L5.2223 45.7796C4.50101 45.4381 3.68159 44.8289 2.95281 44.1236C2.22353 43.4178 1.60379 42.634 1.26844 41.9549C1.19598 41.8082 1.1298 41.6785 1.06905 41.5595C0.888123 41.2049 0.755459 40.945 0.648755 40.6105C0.50826 40.1701 0.414132 39.5977 0.353834 38.5327C0.24774 36.6588 0.248637 33.3234 0.250436 26.6302C0.250686 25.6996 0.250954 24.7041 0.250954 23.6387C0.250954 22.8143 0.250833 22.0314 0.250718 21.2876C0.249622 14.1958 0.249076 10.6619 0.359211 8.68024C0.419955 7.58728 0.513682 6.98576 0.652591 6.52774C0.765171 6.15653 0.907525 5.87579 1.10429 5.48775C1.15175 5.39414 1.20239 5.29429 1.25653 5.18542L1.25654 5.18541C2.50341 2.67789 5.0326 0.868059 7.99151 0.383734Z" fill="#303036" stroke="#F0EADC" stroke-width="0.5"/>
</svg>
