<svg width="48" height="47" viewBox="0 0 48 47" fill="none" xmlns="http://www.w3.org/2000/svg">
<path d="M10.1177 0.618562L10.1177 0.618556L11.5356 0.264604L23.9425 0.257311L36.3499 0.250018L37.8258 0.611653C42.6115 1.78446 46.1848 5.28565 47.3811 9.96592L47.75 11.4093V23.5V35.5907L47.3811 37.0341C46.1848 41.7144 42.6115 45.2155 37.8258 46.3883L36.3499 46.75H24H11.6501L10.1742 46.3883C5.38846 45.2155 1.81517 41.7144 0.6189 37.0341L0.25 35.5907V23.5V11.4093L0.6189 9.96592L0.376686 9.90402L0.618901 9.96592C1.05619 8.25483 2.04938 6.25519 3.09673 4.97113C4.74843 2.94638 7.40819 1.29468 10.1177 0.618562ZM4.24602 35.7529L4.49036 35.7L4.24602 35.7529C5.02692 39.3609 7.79871 42.0824 11.4584 42.8416L11.5092 42.5968L11.4584 42.8416C11.677 42.8869 12.2124 42.9223 12.9528 42.9523C13.7044 42.9827 14.6935 43.008 15.8398 43.0284C18.1327 43.0692 21.0597 43.09 23.986 43.0907C26.9122 43.0915 29.839 43.0722 32.1314 43.0326C33.2774 43.0128 34.2661 42.988 35.0173 42.958C35.7572 42.9284 36.2922 42.8932 36.5104 42.848C40.1883 42.0848 42.9707 39.3736 43.7474 35.7835C43.7941 35.5679 43.8303 35.0422 43.8608 34.3177C43.8919 33.5815 43.9178 32.613 43.9386 31.4905C43.9802 29.2452 44.0015 26.3791 44.0023 23.5137C44.003 20.6484 43.9833 17.7825 43.9429 15.5378C43.9227 14.4156 43.8973 13.4474 43.8666 12.7116C43.8365 11.9876 43.8005 11.4622 43.754 11.2471C42.9731 7.63914 40.2013 4.91762 36.5416 4.15844L36.4908 4.40323L36.5416 4.15844C36.3291 4.11437 35.7956 4.08025 35.0553 4.05149C34.3032 4.02226 33.3108 3.99795 32.1591 3.97853C29.8555 3.93966 26.9102 3.92024 23.9667 3.92024C21.0232 3.92024 18.0802 3.93966 15.7813 3.97853C14.632 3.99795 13.6425 4.02226 12.8939 4.05149C12.1576 4.08023 11.6273 4.11433 11.4188 4.1587C7.80107 4.92844 5.02162 7.66227 4.25257 11.2165L4.25256 11.2166C4.20594 11.4321 4.16974 11.9578 4.13919 12.6823C4.10813 13.4185 4.08222 14.387 4.06141 15.5095C4.01979 17.7548 3.99852 20.6209 3.99775 23.4863C3.99698 26.3516 4.01671 29.2175 4.05712 31.4622C4.07732 32.5844 4.10272 33.5527 4.13338 34.2884C4.16355 35.0124 4.19946 35.5378 4.24602 35.7529ZM34.8571 12.9721L34.8571 12.9721C34.6429 12.7825 34.4352 12.467 34.2792 12.0942C34.1241 11.7235 34.0297 11.3187 34.0246 10.9649C34.0059 9.66368 34.9508 8.44482 36.2074 8.14499L36.1493 7.90182L36.2074 8.14499C37.7838 7.76868 39.4802 8.90218 39.762 10.5353C39.8939 11.2995 39.5948 12.1104 39.0311 12.7373C38.468 13.3636 37.6657 13.7776 36.8367 13.7721C36.6141 13.7707 36.2256 13.6686 35.8198 13.5053C35.4163 13.3429 35.0476 13.1408 34.8571 12.9721ZM11.9903 25.3243L11.7437 25.3651L11.9903 25.3243C10.9504 19.0365 15.5377 12.8067 22.0059 11.754C28.5816 10.6838 34.9375 15.1921 36.0097 21.6757C37.061 28.0322 32.4606 34.2083 25.8656 35.2541C19.3624 36.2853 13.0561 31.7693 11.9903 25.3243ZM29.8247 17.7893L29.6498 17.9679L29.8247 17.7892C28.6635 16.6522 27.5842 16.0282 26.1002 15.6415C25.5665 15.5024 24.7526 15.4378 23.9589 15.4391C23.1655 15.4405 22.3557 15.5079 21.8308 15.6492C20.4107 16.0315 19.3106 16.6777 18.1753 17.7892L18.1753 17.7893C16.4906 19.439 15.7537 21.1746 15.7537 23.5C15.7537 25.8254 16.4906 27.561 18.1753 29.2107L18.1753 29.2108C19.8599 30.8602 21.63 31.5798 24 31.5798C26.37 31.5798 28.1401 30.8602 29.8247 29.2108L29.8247 29.2107C31.5094 27.561 32.2463 25.8254 32.2463 23.5C32.2463 21.1746 31.5094 19.439 29.8247 17.7893Z" fill="#303036" stroke="#F0EADC" stroke-width="0.5"/>
</svg>
