<svg width="197" height="197" viewBox="0 0 197 197" fill="none" xmlns="http://www.w3.org/2000/svg">
<path d="M86.351 185.052C86.9728 185.145 87.5238 185.316 87.9873 185.577C88.422 185.834 88.7569 186.165 89.0585 186.521C90.0063 187.697 89.6608 189.02 89.6413 189.15L87.6647 188.826L87.6625 188.84C87.6625 188.84 87.7424 188.305 87.5629 187.923C87.3385 187.446 86.8359 187.15 86.0551 187.033C84.7537 186.839 84.1257 187.085 84.0436 187.634C83.9572 188.213 84.6406 188.684 85.8213 188.994C86.5458 189.191 87.1727 189.447 87.6609 189.742C88.1223 190.017 88.4861 190.353 88.7401 190.731C89.1026 191.273 89.2352 191.869 89.1402 192.505C89.0084 193.387 88.5728 193.928 88.2173 194.23C87.4399 194.882 86.3115 195.113 84.8366 194.893C82.899 194.603 82.0722 193.607 81.7153 192.83C81.3381 191.99 81.441 191.104 81.4626 190.959L83.4436 191.255L83.4457 191.241C83.4457 191.241 83.3665 191.672 83.5525 192.01C83.7812 192.458 84.3228 192.791 85.1326 192.912C85.9712 193.037 86.9724 192.965 87.0675 192.329C87.1582 191.721 86.576 191.265 85.3107 190.928C83.9029 190.555 82.9143 189.949 82.3883 189.116C82.0424 188.562 81.9119 187.951 82.0048 187.33C82.0501 187.026 82.1646 186.26 82.8901 185.658C83.2622 185.345 83.737 185.135 84.3001 185.027C84.8777 184.921 85.5558 184.933 86.351 185.052Z" fill="#B17F4A" fill-opacity="0.6"/>
<path d="M68.0405 190.513L65.8708 189.81L68.8002 180.769L73.366 187.121L74.7946 182.712L76.9643 183.415L74.0349 192.455L69.5367 185.895L68.0405 190.513Z" fill="#B17F4A" fill-opacity="0.6"/>
<path d="M53.7618 184.442C51.3746 183.17 50.4701 180.204 51.7417 177.817C53.0132 175.429 55.9798 174.525 58.367 175.796C60.7541 177.068 61.6587 180.035 60.3871 182.422C59.1155 184.809 56.149 185.714 53.7618 184.442ZM55.2322 177.39C54.5004 177.613 53.9056 178.108 53.5482 178.779C53.1907 179.45 53.112 180.22 53.3351 180.951C53.5583 181.683 54.0531 182.278 54.7241 182.635C55.3951 182.993 56.1648 183.072 56.8966 182.848C57.6283 182.625 58.2232 182.131 58.5806 181.46C58.938 180.789 59.0167 180.019 58.7936 179.287C58.5636 178.568 58.0757 177.96 57.4047 177.603C56.7337 177.246 55.9571 177.18 55.2322 177.39Z" fill="#B17F4A" fill-opacity="0.6"/>
<path d="M34.3945 171.327L32.3486 169.672L42.3037 165.502L41.6571 168.928L44.8725 167.58L42.8739 178.187L40.828 176.532L41.8841 171.274L41.1586 171.59L40.3051 176.109L38.2591 174.454L39.3153 169.196L34.3945 171.327Z" fill="#B17F4A" fill-opacity="0.6"/>
<path d="M25.7835 159.5L28.1402 162.217L29.4102 161.115L27.6571 159.094L29.2033 157.753L30.9564 159.774L33.7726 157.331L35.2671 159.054L28.0885 165.281L27.3413 164.42L26.594 163.558L24.2373 160.841L25.7835 159.5Z" fill="#B17F4A" fill-opacity="0.6"/>
<path d="M24.1457 148.343L21.6707 144.494L23.3923 143.387L25.8673 147.236L25.8752 147.248L27.1009 149.154L19.1078 154.294L17.8742 152.376L24.1457 148.343Z" fill="#B17F4A" fill-opacity="0.6"/>
<path d="M17.7208 132.106L16.7874 133.277L18.2515 136.546L19.7465 136.629L20.8222 139.031L10.0577 138.245L16.6451 129.704L17.7208 132.106ZM16.2471 136.434L15.536 134.847L14.3675 136.315L16.2471 136.434Z" fill="#B17F4A" fill-opacity="0.6"/>
<path d="M13.5264 119.313L10.9629 123.443L12.2467 124.176L14.6488 123.538L15.2344 125.742L6.04994 128.182L5.46435 125.978L9.12401 125.006L4.4921 122.319L3.66251 119.196L8.97776 122.292L12.6968 116.191L13.5264 119.313Z" fill="#B17F4A" fill-opacity="0.6"/>
<path d="M8.00722 110.121L9.67981 109.95L9.23649 105.615L11.2727 105.407L11.9481 112.01L2.49433 112.977L1.81893 106.374L3.85512 106.166L4.29844 110.5L5.97103 110.329L5.59465 106.649L7.63085 106.441L8.00722 110.121Z" fill="#B17F4A" fill-opacity="0.6"/>
<path d="M11.6959 87.6737C11.6126 88.2968 11.4501 88.8503 11.1959 89.3179C10.9455 89.7564 10.6199 90.0964 10.2691 90.4035C9.10751 91.3693 7.77918 91.0443 7.64876 91.0269L7.94303 89.0455L7.92854 89.0435C7.92854 89.0435 8.46472 89.1152 8.84349 88.9298C9.31696 88.698 9.60597 88.1909 9.71054 87.4084C9.88482 86.1042 9.62897 85.48 9.0783 85.4064C8.49865 85.3289 8.03761 86.0196 7.74647 87.2049C7.56076 87.9324 7.31422 88.5632 7.02714 89.0558C6.75842 89.5214 6.42887 89.8904 6.05491 90.1502C5.5186 90.521 4.92439 90.6628 4.28677 90.5776C3.4028 90.4595 2.85513 90.0323 2.54801 89.6816C1.88353 88.9143 1.63556 87.7896 1.83307 86.3115C2.09255 84.3697 3.07534 83.5275 3.84738 83.1587C4.68126 82.7686 5.5691 82.8577 5.71401 82.8771L5.44873 84.8624L5.46322 84.8643C5.46322 84.8643 5.03041 84.7917 4.69511 84.9829C4.25063 85.2185 3.92682 85.7653 3.81838 86.5768C3.70607 87.4173 3.7937 88.4173 4.43132 88.5025C5.03996 88.5838 5.48744 87.9946 5.80469 86.7242C6.1558 85.3109 6.74639 84.313 7.57065 83.7742C8.11951 83.4198 8.72821 83.2798 9.35133 83.3631C9.65565 83.4038 10.4237 83.5064 11.036 84.2225C11.3557 84.5897 11.5729 85.0612 11.6897 85.6226C11.8045 86.1984 11.8024 86.8766 11.6959 87.6737Z" fill="#B17F4A" fill-opacity="0.6"/>
<path d="M5.95386 69.4489L6.6233 67.2686L15.7078 70.058L9.42779 74.7213L13.8582 76.0817L13.1888 78.262L4.10429 75.4726L10.5939 70.8736L5.95386 69.4489Z" fill="#B17F4A" fill-opacity="0.6"/>
<path d="M11.8022 55.0771C13.0368 52.6706 15.989 51.7203 18.3955 52.9548C20.8021 54.1894 21.7523 57.1416 20.5178 59.5481C19.2833 61.9547 16.3311 62.9049 13.9245 61.6704C11.518 60.4359 10.5677 57.4837 11.8022 55.0771ZM18.8761 56.4384C18.6417 55.7101 18.1377 55.123 17.4613 54.776C16.7849 54.429 16.014 54.3622 15.2858 54.5966C14.5576 54.831 13.9704 55.3349 13.6234 56.0114C13.2764 56.6878 13.2096 57.4587 13.444 58.1869C13.6784 58.9151 14.1823 59.5022 14.8588 59.8492C15.5352 60.1962 16.3061 60.2631 17.0343 60.0287C17.7495 59.7876 18.3496 59.2903 18.6966 58.6139C19.0437 57.9374 19.0975 57.1599 18.8761 56.4384Z" fill="#B17F4A" fill-opacity="0.6"/>
<path d="M24.6169 35.5104L26.2403 33.4391L30.5635 43.3286L27.1279 42.735L28.5253 45.9292L17.8892 44.0948L19.5125 42.0235L24.7855 42.9982L24.4586 42.2777L19.9273 41.4941L21.5507 39.4228L26.8236 40.3976L24.6169 35.5104Z" fill="#B17F4A" fill-opacity="0.6"/>
<path d="M36.307 26.718L33.6269 29.1164L34.7481 30.3693L36.7418 28.5851L38.1067 30.1104L36.113 31.8945L38.5992 34.6727L36.8996 36.1936L30.5624 29.1121L31.4122 28.3516L32.262 27.5911L34.942 25.1927L36.307 26.718Z" fill="#B17F4A" fill-opacity="0.6"/>
<path d="M47.4403 24.9069L51.2506 22.3727L52.3841 24.0769L48.5738 26.6112L48.5617 26.6193L46.6748 27.8743L41.412 19.9615L43.311 18.6984L47.4403 24.9069Z" fill="#B17F4A" fill-opacity="0.6"/>
<path d="M63.5736 18.2313L62.3884 17.3162L59.1423 18.8306L59.0821 20.3268L56.6973 21.4394L57.3166 10.664L65.9584 17.1187L63.5736 18.2313ZM59.2229 16.8248L60.7996 16.0892L59.3132 14.9435L59.2229 16.8248Z" fill="#B17F4A" fill-opacity="0.6"/>
<path d="M76.2997 13.8412L72.1305 11.3417L71.4175 12.6368L72.0927 15.0287L69.8977 15.6483L67.3161 6.50263L69.511 5.88304L70.5397 9.52724L73.1552 4.85436L76.2648 3.97661L73.2514 9.33906L79.4092 12.9634L76.2997 13.8412Z" fill="#B17F4A" fill-opacity="0.6"/>
<path d="M85.4077 8.18118L85.6046 9.85093L89.9315 9.34068L90.1712 11.3734L83.5793 12.1508L82.4664 2.71309L89.0582 1.93573L89.2979 3.96846L84.9711 4.47871L85.168 6.14845L88.8415 5.71526L89.0812 7.74799L85.4077 8.18118Z" fill="#B17F4A" fill-opacity="0.6"/>
<path d="M107.908 11.5221C107.284 11.4484 106.728 11.2945 106.257 11.0476C105.814 10.804 105.469 10.4836 105.157 10.1376C104.173 8.99113 104.478 7.65794 104.493 7.52727L106.479 7.79088L106.48 7.77636C106.48 7.77636 106.417 8.31358 106.608 8.68945C106.847 9.15928 107.359 9.44042 108.143 9.53288C109.45 9.68698 110.07 9.42152 110.135 8.86978C110.203 8.289 109.506 7.83869 108.316 7.5659C107.586 7.39146 106.951 7.15469 106.454 6.87526C105.984 6.61377 105.61 6.28996 105.345 5.92005C104.966 5.38954 104.815 4.7976 104.89 4.15874C104.995 3.27305 105.413 2.71884 105.759 2.40633C106.516 1.73008 107.637 1.46476 109.118 1.63941C111.064 1.86885 111.921 2.8385 112.302 3.60475C112.704 4.4325 112.629 5.32162 112.612 5.46681L110.623 5.23224L110.621 5.24675C110.621 5.24675 110.687 4.81288 110.491 4.48058C110.248 4.03979 109.696 3.72446 108.883 3.62858C108.041 3.52927 107.043 3.63234 106.967 4.2712C106.895 4.88102 107.492 5.31935 108.767 5.61693C110.185 5.94616 111.192 6.52125 111.744 7.33709C112.106 7.88041 112.256 8.48687 112.182 9.11121C112.146 9.41612 112.055 10.1857 111.349 10.809C110.987 11.1343 110.519 11.3588 109.959 11.4842C109.385 11.6079 108.707 11.6162 107.908 11.5221Z" fill="#B17F4A" fill-opacity="0.6"/>
<path d="M126.042 5.4982L128.232 6.13388L125.583 15.2604L120.824 9.0532L119.532 13.5041L117.341 12.8685L119.99 3.74194L124.689 10.1597L126.042 5.4982Z" fill="#B17F4A" fill-opacity="0.6"/>
<path d="M140.502 11.1246C142.928 12.3218 143.923 15.259 142.726 17.6843C141.529 20.1097 138.592 21.1055 136.166 19.9083C133.741 18.7111 132.745 15.7739 133.942 13.3485C135.14 10.9232 138.077 9.92742 140.502 11.1246ZM139.25 18.2187C139.975 17.973 140.554 17.4601 140.891 16.7784C141.227 16.0966 141.282 15.3248 141.036 14.6003C140.791 13.8758 140.278 13.2965 139.596 12.96C138.914 12.6235 138.143 12.5686 137.418 12.8142C136.694 13.0599 136.114 13.5728 135.778 14.2545C135.441 14.9362 135.386 15.7081 135.632 16.4326C135.884 17.144 136.391 17.7364 137.072 18.0729C137.754 18.4094 138.532 18.4512 139.25 18.2187Z" fill="#B17F4A" fill-opacity="0.6"/>
<path d="M160.265 23.6348L162.362 25.2259L152.54 29.7015L153.08 26.2571L149.908 27.7037L151.578 17.0405L153.674 18.6316L152.781 23.919L153.496 23.5811L154.21 19.0383L156.306 20.6294L155.413 25.9168L160.265 23.6348Z" fill="#B17F4A" fill-opacity="0.6"/>
<path d="M169.237 35.1906L166.797 32.5478L165.562 33.6883L167.377 35.6542L165.873 37.0425L164.058 35.0766L161.318 37.6054L159.771 35.9295L166.754 29.4836L167.528 30.3216L168.301 31.1595L170.741 33.8022L169.237 35.1906Z" fill="#B17F4A" fill-opacity="0.6"/>
<path d="M171.219 46.2911L173.812 50.0618L172.125 51.2215L169.533 47.4509L169.524 47.4388L168.24 45.5716L176.071 40.1871L177.363 42.0664L171.219 46.2911Z" fill="#B17F4A" fill-opacity="0.6"/>
<path d="M178.144 62.3217L179.041 61.1225L177.477 57.9002L175.98 57.8631L174.831 55.4958L185.614 55.9486L179.294 64.6891L178.144 62.3217ZM179.484 57.9498L180.243 59.5149L181.366 58.011L179.484 57.9498Z" fill="#B17F4A" fill-opacity="0.6"/>
<path d="M182.732 74.9787L185.167 70.7714L183.861 70.0785L181.479 70.7906L180.826 68.6054L189.931 65.8828L190.584 68.0679L186.956 69.1528L191.669 71.6958L192.595 74.7914L187.186 71.8613L183.658 78.0743L182.732 74.9787Z" fill="#B17F4A" fill-opacity="0.6"/>
<path d="M188.532 83.9964L186.866 84.2191L187.443 88.5375L185.414 88.8086L184.535 82.2296L193.954 80.9709L194.833 87.55L192.805 87.821L192.228 83.5026L190.561 83.7253L191.051 87.3916L189.022 87.6627L188.532 83.9964Z" fill="#B17F4A" fill-opacity="0.6"/>
<path d="M185.538 106.547C185.602 105.921 185.748 105.363 185.987 104.888C186.224 104.442 186.539 104.092 186.88 103.774C188.011 102.773 189.349 103.057 189.48 103.07L189.247 105.06L189.261 105.061C189.261 105.061 188.723 105.006 188.35 105.203C187.884 105.449 187.611 105.965 187.531 106.751C187.397 108.06 187.672 108.675 188.225 108.732C188.806 108.792 189.246 108.087 189.5 106.893C189.663 106.16 189.89 105.522 190.162 105.021C190.416 104.547 190.734 104.168 191.1 103.897C191.625 103.51 192.214 103.35 192.854 103.415C193.741 103.506 194.302 103.916 194.62 104.257C195.308 105.003 195.59 106.12 195.438 107.603C195.239 109.552 194.283 110.425 193.523 110.817C192.701 111.233 191.811 111.171 191.665 111.156L191.869 109.164L191.855 109.162C191.855 109.162 192.29 109.221 192.619 109.02C193.056 108.771 193.363 108.214 193.446 107.4C193.532 106.556 193.414 105.559 192.774 105.494C192.163 105.431 191.734 106.034 191.456 107.314C191.149 108.737 190.589 109.753 189.782 110.317C189.244 110.688 188.64 110.847 188.015 110.783C187.709 110.752 186.939 110.673 186.304 109.976C185.974 109.619 185.742 109.154 185.608 108.597C185.475 108.025 185.456 107.347 185.538 106.547Z" fill="#B17F4A" fill-opacity="0.6"/>
<path d="M191.84 124.586L191.238 126.786L182.072 124.279L188.205 119.423L183.735 118.201L184.336 116.001L193.503 118.508L187.158 123.305L191.84 124.586Z" fill="#B17F4A" fill-opacity="0.6"/>
<path d="M186.438 139.131C185.278 141.575 182.357 142.616 179.913 141.456C177.47 140.297 176.428 137.375 177.588 134.932C178.748 132.488 181.669 131.447 184.113 132.607C186.556 133.766 187.597 136.688 186.438 139.131ZM179.325 137.989C179.582 138.71 180.104 139.281 180.791 139.607C181.477 139.933 182.25 139.976 182.971 139.719C183.691 139.462 184.263 138.941 184.588 138.254C184.914 137.567 184.957 136.794 184.701 136.074C184.444 135.353 183.922 134.782 183.235 134.456C182.548 134.13 181.776 134.087 181.055 134.344C180.348 134.607 179.763 135.122 179.437 135.809C179.111 136.496 179.082 137.275 179.325 137.989Z" fill="#B17F4A" fill-opacity="0.6"/>
<path d="M174.237 159.085L172.678 161.205L168.052 151.454L171.504 151.941L170.008 148.792L180.696 150.296L179.138 152.417L173.837 151.606L174.186 152.316L178.739 152.959L177.181 155.079L171.88 154.268L174.237 159.085Z" fill="#B17F4A" fill-opacity="0.6"/>
<path d="M162.819 168.234L165.424 165.754L164.264 164.536L162.327 166.381L160.915 164.899L162.853 163.054L160.282 160.354L161.934 158.781L168.487 165.664L167.661 166.45L166.835 167.236L164.231 169.716L162.819 168.234Z" fill="#B17F4A" fill-opacity="0.6"/>
<path d="M151.752 170.388L148.022 173.039L146.837 171.371L150.567 168.72L150.579 168.712L152.426 167.399L157.931 175.145L156.072 176.466L151.752 170.388Z" fill="#B17F4A" fill-opacity="0.6"/>
<path d="M135.829 177.559L137.042 178.437L140.24 176.823L140.254 175.326L142.603 174.14L142.317 184.929L133.48 178.745L135.829 177.559ZM140.222 178.83L138.668 179.614L140.189 180.714L140.222 178.83Z" fill="#B17F4A" fill-opacity="0.6"/>
<path d="M123.245 182.341L127.489 184.71L128.162 183.394L127.413 181.024L129.588 180.337L132.451 189.398L130.276 190.085L129.136 186.475L126.666 191.226L123.585 192.199L126.431 186.746L120.164 183.314L123.245 182.341Z" fill="#B17F4A" fill-opacity="0.6"/>
<path d="M114.318 188.28L114.07 186.617L109.761 187.26L109.458 185.236L116.023 184.255L117.427 193.654L110.862 194.635L110.56 192.61L114.869 191.967L114.621 190.304L110.962 190.85L110.66 188.826L114.318 188.28Z" fill="#B17F4A" fill-opacity="0.6"/>
</svg>
